<svg xmlns="http://www.w3.org/2000/svg" width="375" viewBox="0 0 375 262.5" height="262.5" version="1.0"><defs><clipPath id="a"><path d="M 132.515625 29.941406 L 234 29.941406 L 234 132 L 132.515625 132 Z M 132.515625 29.941406"/></clipPath><clipPath id="b"><path d="M 221 118 L 241.058594 118 L 241.058594 138.484375 L 221 138.484375 Z M 221 118"/></clipPath></defs><g clip-path="url(#a)"><path fill="#C458BF" d="M 132.515625 29.941406 L 132.515625 131.148438 L 213.917969 131.148438 L 213.917969 111.34375 L 152.320312 111.34375 L 152.320312 49.746094 L 213.917969 49.746094 L 213.917969 111.34375 L 233.71875 111.34375 L 233.71875 29.941406 Z M 132.515625 29.941406"/></g><g clip-path="url(#b)"><path fill="#C458BF" d="M 221.253906 118.683594 L 241.058594 118.683594 L 241.058594 138.484375 L 221.253906 138.484375 Z M 221.253906 118.683594"/></g><g fill="#3E3093"><g><g><path d="M 3.78125 0 C 2.601562 0 2.015625 -0.59375 2.015625 -1.78125 L 2.015625 -16.625 C 2.015625 -17.8125 2.601562 -18.40625 3.78125 -18.40625 L 10.046875 -18.40625 C 11.984375 -18.40625 13.484375 -17.984375 14.546875 -17.140625 C 15.609375 -16.296875 16.140625 -15.125 16.140625 -13.625 C 16.140625 -12.632812 15.882812 -11.78125 15.375 -11.0625 C 14.875 -10.351562 14.179688 -9.832031 13.296875 -9.5 C 14.335938 -9.207031 15.148438 -8.691406 15.734375 -7.953125 C 16.316406 -7.210938 16.609375 -6.273438 16.609375 -5.140625 C 16.609375 -3.503906 16.054688 -2.238281 14.953125 -1.34375 C 13.847656 -0.445312 12.3125 0 10.34375 0 Z M 5.21875 -10.59375 L 9.484375 -10.59375 C 11.753906 -10.59375 12.890625 -11.472656 12.890625 -13.234375 C 12.890625 -14.992188 11.753906 -15.875 9.484375 -15.875 L 5.21875 -15.875 Z M 5.21875 -2.53125 L 9.921875 -2.53125 C 12.222656 -2.53125 13.375 -3.453125 13.375 -5.296875 C 13.375 -7.140625 12.222656 -8.0625 9.921875 -8.0625 L 5.21875 -8.0625 Z M 5.21875 -2.53125" transform="translate(84.52 237.156)"/></g></g></g><g fill="#3E3093"><g><g><path d="M 7.984375 0.265625 C 6.546875 0.265625 5.300781 -0.00390625 4.25 -0.546875 C 3.207031 -1.085938 2.398438 -1.851562 1.828125 -2.84375 C 1.265625 -3.832031 0.984375 -5.007812 0.984375 -6.375 C 0.984375 -7.695312 1.257812 -8.851562 1.8125 -9.84375 C 2.363281 -10.832031 3.117188 -11.609375 4.078125 -12.171875 C 5.046875 -12.742188 6.148438 -13.03125 7.390625 -13.03125 C 9.203125 -13.03125 10.632812 -12.453125 11.6875 -11.296875 C 12.738281 -10.148438 13.265625 -8.585938 13.265625 -6.609375 C 13.265625 -5.960938 12.847656 -5.640625 12.015625 -5.640625 L 4.125 -5.640625 C 4.363281 -3.359375 5.671875 -2.21875 8.046875 -2.21875 C 8.492188 -2.21875 9 -2.273438 9.5625 -2.390625 C 10.132812 -2.503906 10.671875 -2.695312 11.171875 -2.96875 C 11.628906 -3.238281 12.015625 -3.320312 12.328125 -3.21875 C 12.640625 -3.125 12.859375 -2.9375 12.984375 -2.65625 C 13.117188 -2.382812 13.132812 -2.078125 13.03125 -1.734375 C 12.9375 -1.398438 12.691406 -1.109375 12.296875 -0.859375 C 11.691406 -0.472656 10.988281 -0.1875 10.1875 0 C 9.394531 0.175781 8.660156 0.265625 7.984375 0.265625 Z M 7.515625 -10.8125 C 6.554688 -10.8125 5.78125 -10.515625 5.1875 -9.921875 C 4.601562 -9.328125 4.25 -8.523438 4.125 -7.515625 L 10.546875 -7.515625 C 10.472656 -8.578125 10.179688 -9.390625 9.671875 -9.953125 C 9.160156 -10.523438 8.441406 -10.8125 7.515625 -10.8125 Z M 7.515625 -10.8125" transform="translate(104.365 237.156)"/></g></g></g><g fill="#3E3093"><g><g><path d="M 6.375 0.265625 C 5.625 0.265625 4.828125 0.1875 3.984375 0.03125 C 3.148438 -0.125 2.40625 -0.394531 1.75 -0.78125 C 1.382812 -0.988281 1.15625 -1.242188 1.0625 -1.546875 C 0.976562 -1.859375 0.992188 -2.144531 1.109375 -2.40625 C 1.222656 -2.675781 1.414062 -2.875 1.6875 -3 C 1.957031 -3.125 2.273438 -3.097656 2.640625 -2.921875 C 3.335938 -2.585938 3.988281 -2.351562 4.59375 -2.21875 C 5.207031 -2.09375 5.804688 -2.03125 6.390625 -2.03125 C 7.234375 -2.03125 7.859375 -2.171875 8.265625 -2.453125 C 8.671875 -2.742188 8.875 -3.128906 8.875 -3.609375 C 8.875 -4.335938 8.335938 -4.804688 7.265625 -5.015625 L 4.640625 -5.515625 C 2.429688 -5.929688 1.328125 -7.078125 1.328125 -8.953125 C 1.328125 -9.785156 1.554688 -10.503906 2.015625 -11.109375 C 2.484375 -11.722656 3.125 -12.195312 3.9375 -12.53125 C 4.757812 -12.863281 5.703125 -13.03125 6.765625 -13.03125 C 8.296875 -13.03125 9.660156 -12.691406 10.859375 -12.015625 C 11.191406 -11.835938 11.390625 -11.59375 11.453125 -11.28125 C 11.515625 -10.976562 11.476562 -10.691406 11.34375 -10.421875 C 11.21875 -10.160156 11.015625 -9.972656 10.734375 -9.859375 C 10.453125 -9.742188 10.128906 -9.773438 9.765625 -9.953125 C 9.222656 -10.222656 8.703125 -10.421875 8.203125 -10.546875 C 7.710938 -10.671875 7.238281 -10.734375 6.78125 -10.734375 C 5.9375 -10.734375 5.304688 -10.582031 4.890625 -10.28125 C 4.484375 -9.988281 4.28125 -9.597656 4.28125 -9.109375 C 4.28125 -8.347656 4.773438 -7.878906 5.765625 -7.703125 L 8.375 -7.203125 C 9.507812 -6.992188 10.367188 -6.609375 10.953125 -6.046875 C 11.535156 -5.492188 11.828125 -4.75 11.828125 -3.8125 C 11.828125 -2.539062 11.328125 -1.539062 10.328125 -0.8125 C 9.335938 -0.09375 8.019531 0.265625 6.375 0.265625 Z M 6.375 0.265625" transform="translate(120.4 237.156)"/></g></g></g><g fill="#3E3093"><g><g><path d="M 7.546875 0.265625 C 4.171875 0.265625 2.484375 -1.40625 2.484375 -4.75 L 2.484375 -10.3125 L 1.125 -10.3125 C 0.25 -10.3125 -0.1875 -10.722656 -0.1875 -11.546875 C -0.1875 -12.359375 0.25 -12.765625 1.125 -12.765625 L 2.484375 -12.765625 L 2.484375 -15.140625 C 2.484375 -16.234375 3.03125 -16.78125 4.125 -16.78125 C 5.207031 -16.78125 5.75 -16.234375 5.75 -15.140625 L 5.75 -12.765625 L 8.515625 -12.765625 C 9.378906 -12.765625 9.8125 -12.359375 9.8125 -11.546875 C 9.8125 -10.722656 9.378906 -10.3125 8.515625 -10.3125 L 5.75 -10.3125 L 5.75 -4.9375 C 5.75 -4.101562 5.929688 -3.472656 6.296875 -3.046875 C 6.660156 -2.628906 7.25 -2.421875 8.0625 -2.421875 C 8.363281 -2.421875 8.625 -2.445312 8.84375 -2.5 C 9.070312 -2.550781 9.273438 -2.585938 9.453125 -2.609375 C 9.660156 -2.628906 9.832031 -2.5625 9.96875 -2.40625 C 10.113281 -2.257812 10.1875 -1.960938 10.1875 -1.515625 C 10.1875 -1.160156 10.128906 -0.847656 10.015625 -0.578125 C 9.898438 -0.316406 9.695312 -0.132812 9.40625 -0.03125 C 9.175781 0.0390625 8.878906 0.109375 8.515625 0.171875 C 8.148438 0.234375 7.828125 0.265625 7.546875 0.265625 Z M 7.546875 0.265625" transform="translate(135.023 237.156)"/></g></g></g><g fill="#3E3093"><g><g><path d="M 8.125 0.203125 C 7.007812 0.203125 6.453125 -0.367188 6.453125 -1.515625 L 6.453125 -15.609375 L 1.359375 -15.609375 C 0.398438 -15.609375 -0.078125 -16.078125 -0.078125 -17.015625 C -0.078125 -17.941406 0.398438 -18.40625 1.359375 -18.40625 L 14.875 -18.40625 C 15.832031 -18.40625 16.3125 -17.941406 16.3125 -17.015625 C 16.3125 -16.078125 15.832031 -15.609375 14.875 -15.609375 L 9.796875 -15.609375 L 9.796875 -1.515625 C 9.796875 -0.367188 9.238281 0.203125 8.125 0.203125 Z M 8.125 0.203125" transform="translate(155.888 237.156)"/></g></g></g><g fill="#3E3093"><g><g><path d="M 7.515625 0.265625 C 6.191406 0.265625 5.039062 -0.00390625 4.0625 -0.546875 C 3.09375 -1.085938 2.335938 -1.859375 1.796875 -2.859375 C 1.253906 -3.859375 0.984375 -5.035156 0.984375 -6.390625 C 0.984375 -7.753906 1.253906 -8.929688 1.796875 -9.921875 C 2.335938 -10.910156 3.09375 -11.675781 4.0625 -12.21875 C 5.039062 -12.757812 6.191406 -13.03125 7.515625 -13.03125 C 8.835938 -13.03125 9.984375 -12.757812 10.953125 -12.21875 C 11.929688 -11.675781 12.691406 -10.910156 13.234375 -9.921875 C 13.773438 -8.929688 14.046875 -7.753906 14.046875 -6.390625 C 14.046875 -5.035156 13.773438 -3.859375 13.234375 -2.859375 C 12.691406 -1.859375 11.929688 -1.085938 10.953125 -0.546875 C 9.984375 -0.00390625 8.835938 0.265625 7.515625 0.265625 Z M 7.515625 -2.21875 C 8.492188 -2.21875 9.273438 -2.566406 9.859375 -3.265625 C 10.453125 -3.972656 10.75 -5.015625 10.75 -6.390625 C 10.75 -7.785156 10.453125 -8.828125 9.859375 -9.515625 C 9.273438 -10.203125 8.492188 -10.546875 7.515625 -10.546875 C 6.546875 -10.546875 5.765625 -10.203125 5.171875 -9.515625 C 4.578125 -8.828125 4.28125 -7.785156 4.28125 -6.390625 C 4.28125 -5.015625 4.578125 -3.972656 5.171875 -3.265625 C 5.765625 -2.566406 6.546875 -2.21875 7.515625 -2.21875 Z M 7.515625 -2.21875" transform="translate(173.984 237.156)"/></g></g></g><g fill="#3E3093"><g><g><path d="M 6.609375 0.265625 C 5.492188 0.265625 4.515625 -0.00390625 3.671875 -0.546875 C 2.828125 -1.085938 2.164062 -1.859375 1.6875 -2.859375 C 1.21875 -3.859375 0.984375 -5.035156 0.984375 -6.390625 C 0.984375 -7.765625 1.21875 -8.941406 1.6875 -9.921875 C 2.164062 -10.910156 2.828125 -11.675781 3.671875 -12.21875 C 4.515625 -12.757812 5.492188 -13.03125 6.609375 -13.03125 C 7.515625 -13.03125 8.332031 -12.828125 9.0625 -12.421875 C 9.789062 -12.023438 10.335938 -11.492188 10.703125 -10.828125 L 10.703125 -16.96875 C 10.703125 -18.0625 11.242188 -18.609375 12.328125 -18.609375 C 13.421875 -18.609375 13.96875 -18.0625 13.96875 -16.96875 L 13.96875 -1.46875 C 13.96875 -0.351562 13.425781 0.203125 12.34375 0.203125 C 11.269531 0.203125 10.734375 -0.351562 10.734375 -1.46875 L 10.734375 -2.015625 C 10.367188 -1.316406 9.816406 -0.757812 9.078125 -0.34375 C 8.347656 0.0625 7.523438 0.265625 6.609375 0.265625 Z M 7.515625 -2.21875 C 8.492188 -2.21875 9.273438 -2.566406 9.859375 -3.265625 C 10.453125 -3.972656 10.75 -5.015625 10.75 -6.390625 C 10.75 -7.785156 10.453125 -8.828125 9.859375 -9.515625 C 9.273438 -10.203125 8.492188 -10.546875 7.515625 -10.546875 C 6.546875 -10.546875 5.765625 -10.203125 5.171875 -9.515625 C 4.578125 -8.828125 4.28125 -7.785156 4.28125 -6.390625 C 4.28125 -5.015625 4.578125 -3.972656 5.171875 -3.265625 C 5.765625 -2.566406 6.546875 -2.21875 7.515625 -2.21875 Z M 7.515625 -2.21875" transform="translate(190.906 237.156)"/></g></g></g><g fill="#3E3093"><g><g><path d="M 7.515625 0.265625 C 6.191406 0.265625 5.039062 -0.00390625 4.0625 -0.546875 C 3.09375 -1.085938 2.335938 -1.859375 1.796875 -2.859375 C 1.253906 -3.859375 0.984375 -5.035156 0.984375 -6.390625 C 0.984375 -7.753906 1.253906 -8.929688 1.796875 -9.921875 C 2.335938 -10.910156 3.09375 -11.675781 4.0625 -12.21875 C 5.039062 -12.757812 6.191406 -13.03125 7.515625 -13.03125 C 8.835938 -13.03125 9.984375 -12.757812 10.953125 -12.21875 C 11.929688 -11.675781 12.691406 -10.910156 13.234375 -9.921875 C 13.773438 -8.929688 14.046875 -7.753906 14.046875 -6.390625 C 14.046875 -5.035156 13.773438 -3.859375 13.234375 -2.859375 C 12.691406 -1.859375 11.929688 -1.085938 10.953125 -0.546875 C 9.984375 -0.00390625 8.835938 0.265625 7.515625 0.265625 Z M 7.515625 -2.21875 C 8.492188 -2.21875 9.273438 -2.566406 9.859375 -3.265625 C 10.453125 -3.972656 10.75 -5.015625 10.75 -6.390625 C 10.75 -7.785156 10.453125 -8.828125 9.859375 -9.515625 C 9.273438 -10.203125 8.492188 -10.546875 7.515625 -10.546875 C 6.546875 -10.546875 5.765625 -10.203125 5.171875 -9.515625 C 4.578125 -8.828125 4.28125 -7.785156 4.28125 -6.390625 C 4.28125 -5.015625 4.578125 -3.972656 5.171875 -3.265625 C 5.765625 -2.566406 6.546875 -2.21875 7.515625 -2.21875 Z M 7.515625 -2.21875" transform="translate(208.454 237.156)"/></g></g></g><g fill="#3E3093"><g><g><path d="M 2.1875 0.203125 C 1.582031 0.203125 1.148438 -0.00390625 0.890625 -0.421875 C 0.628906 -0.835938 0.632812 -1.34375 0.90625 -1.9375 L 7.8125 -17.203125 C 8.03125 -17.710938 8.300781 -18.070312 8.625 -18.28125 C 8.945312 -18.5 9.316406 -18.609375 9.734375 -18.609375 C 10.140625 -18.609375 10.503906 -18.5 10.828125 -18.28125 C 11.148438 -18.070312 11.421875 -17.710938 11.640625 -17.203125 L 18.5625 -1.9375 C 18.84375 -1.320312 18.859375 -0.8125 18.609375 -0.40625 C 18.367188 0 17.953125 0.203125 17.359375 0.203125 C 16.867188 0.203125 16.488281 0.0859375 16.21875 -0.140625 C 15.957031 -0.378906 15.722656 -0.742188 15.515625 -1.234375 L 14.203125 -4.25 L 5.21875 -4.25 L 3.9375 -1.234375 C 3.71875 -0.722656 3.484375 -0.351562 3.234375 -0.125 C 2.992188 0.09375 2.644531 0.203125 2.1875 0.203125 Z M 9.6875 -14.78125 L 6.375 -6.921875 L 13.0625 -6.921875 L 9.734375 -14.78125 Z M 9.6875 -14.78125" transform="translate(234.333 237.156)"/></g></g></g><g fill="#3E3093"><g><g><path d="M 3.3125 4.90625 C 2.238281 4.90625 1.703125 4.359375 1.703125 3.265625 L 1.703125 -11.328125 C 1.703125 -12.421875 2.234375 -12.96875 3.296875 -12.96875 C 4.367188 -12.96875 4.90625 -12.421875 4.90625 -11.328125 L 4.90625 -10.78125 C 5.269531 -11.457031 5.816406 -12 6.546875 -12.40625 C 7.285156 -12.820312 8.125 -13.03125 9.0625 -13.03125 C 10.175781 -13.03125 11.15625 -12.757812 12 -12.21875 C 12.84375 -11.675781 13.5 -10.910156 13.96875 -9.921875 C 14.4375 -8.941406 14.671875 -7.765625 14.671875 -6.390625 C 14.671875 -5.035156 14.4375 -3.859375 13.96875 -2.859375 C 13.5 -1.859375 12.84375 -1.085938 12 -0.546875 C 11.164062 -0.00390625 10.1875 0.265625 9.0625 0.265625 C 8.15625 0.265625 7.335938 0.0703125 6.609375 -0.3125 C 5.890625 -0.707031 5.335938 -1.238281 4.953125 -1.90625 L 4.953125 3.265625 C 4.953125 4.359375 4.40625 4.90625 3.3125 4.90625 Z M 8.140625 -2.21875 C 9.117188 -2.21875 9.90625 -2.566406 10.5 -3.265625 C 11.09375 -3.972656 11.390625 -5.015625 11.390625 -6.390625 C 11.390625 -7.785156 11.09375 -8.828125 10.5 -9.515625 C 9.90625 -10.203125 9.117188 -10.546875 8.140625 -10.546875 C 7.171875 -10.546875 6.390625 -10.203125 5.796875 -9.515625 C 5.203125 -8.828125 4.90625 -7.785156 4.90625 -6.390625 C 4.90625 -5.015625 5.203125 -3.972656 5.796875 -3.265625 C 6.390625 -2.566406 7.171875 -2.21875 8.140625 -2.21875 Z M 8.140625 -2.21875" transform="translate(255.64 237.156)"/></g></g></g><g fill="#3E3093"><g><g><path d="M 3.3125 4.90625 C 2.238281 4.90625 1.703125 4.359375 1.703125 3.265625 L 1.703125 -11.328125 C 1.703125 -12.421875 2.234375 -12.96875 3.296875 -12.96875 C 4.367188 -12.96875 4.90625 -12.421875 4.90625 -11.328125 L 4.90625 -10.78125 C 5.269531 -11.457031 5.816406 -12 6.546875 -12.40625 C 7.285156 -12.820312 8.125 -13.03125 9.0625 -13.03125 C 10.175781 -13.03125 11.15625 -12.757812 12 -12.21875 C 12.84375 -11.675781 13.5 -10.910156 13.96875 -9.921875 C 14.4375 -8.941406 14.671875 -7.765625 14.671875 -6.390625 C 14.671875 -5.035156 14.4375 -3.859375 13.96875 -2.859375 C 13.5 -1.859375 12.84375 -1.085938 12 -0.546875 C 11.164062 -0.00390625 10.1875 0.265625 9.0625 0.265625 C 8.15625 0.265625 7.335938 0.0703125 6.609375 -0.3125 C 5.890625 -0.707031 5.335938 -1.238281 4.953125 -1.90625 L 4.953125 3.265625 C 4.953125 4.359375 4.40625 4.90625 3.3125 4.90625 Z M 8.140625 -2.21875 C 9.117188 -2.21875 9.90625 -2.566406 10.5 -3.265625 C 11.09375 -3.972656 11.390625 -5.015625 11.390625 -6.390625 C 11.390625 -7.785156 11.09375 -8.828125 10.5 -9.515625 C 9.90625 -10.203125 9.117188 -10.546875 8.140625 -10.546875 C 7.171875 -10.546875 6.390625 -10.203125 5.796875 -9.515625 C 5.203125 -8.828125 4.90625 -7.785156 4.90625 -6.390625 C 4.90625 -5.015625 5.203125 -3.972656 5.796875 -3.265625 C 6.390625 -2.566406 7.171875 -2.21875 8.140625 -2.21875 Z M 8.140625 -2.21875" transform="translate(273.189 237.156)"/></g></g></g><g fill="#3E3093"><g><g><path d="M 6.734375 0.28125 C 5.804688 0.28125 5.0625 0.00390625 4.5 -0.546875 C 3.9375 -1.109375 3.65625 -1.875 3.65625 -2.84375 L 3.65625 -30.96875 C 3.65625 -31.894531 3.921875 -32.613281 4.453125 -33.125 C 4.984375 -33.644531 5.710938 -33.90625 6.640625 -33.90625 L 18.46875 -33.90625 C 22.09375 -33.90625 24.914062 -33 26.9375 -31.1875 C 28.957031 -29.375 29.96875 -26.832031 29.96875 -23.5625 C 29.96875 -20.289062 28.957031 -17.738281 26.9375 -15.90625 C 24.914062 -14.082031 22.09375 -13.171875 18.46875 -13.171875 L 9.859375 -13.171875 L 9.859375 -2.84375 C 9.859375 -1.875 9.578125 -1.109375 9.015625 -0.546875 C 8.453125 0.00390625 7.691406 0.28125 6.734375 0.28125 Z M 17.703125 -17.9375 C 21.960938 -17.9375 24.09375 -19.796875 24.09375 -23.515625 C 24.09375 -27.234375 21.960938 -29.09375 17.703125 -29.09375 L 9.859375 -29.09375 L 9.859375 -17.9375 Z M 17.703125 -17.9375" transform="translate(11.284 201.393)"/></g></g></g><g fill="#3E3093"><g><g><path d="M 30.15625 -34.140625 C 31.082031 -34.140625 31.816406 -33.859375 32.359375 -33.296875 C 32.910156 -32.742188 33.1875 -32 33.1875 -31.0625 L 33.1875 -2.84375 C 33.1875 -1.90625 32.90625 -1.148438 32.34375 -0.578125 C 31.78125 -0.00390625 31.050781 0.28125 30.15625 0.28125 C 29.226562 0.28125 28.488281 -0.00390625 27.9375 -0.578125 C 27.394531 -1.148438 27.125 -1.90625 27.125 -2.84375 L 27.125 -14.71875 L 9.765625 -14.71875 L 9.765625 -2.84375 C 9.765625 -1.90625 9.484375 -1.148438 8.921875 -0.578125 C 8.359375 -0.00390625 7.613281 0.28125 6.6875 0.28125 C 5.789062 0.28125 5.0625 -0.00390625 4.5 -0.578125 C 3.9375 -1.148438 3.65625 -1.90625 3.65625 -2.84375 L 3.65625 -31.0625 C 3.65625 -32 3.925781 -32.742188 4.46875 -33.296875 C 5.019531 -33.859375 5.757812 -34.140625 6.6875 -34.140625 C 7.613281 -34.140625 8.359375 -33.859375 8.921875 -33.296875 C 9.484375 -32.742188 9.765625 -32 9.765625 -31.0625 L 9.765625 -19.71875 L 27.125 -19.71875 L 27.125 -31.0625 C 27.125 -32 27.394531 -32.742188 27.9375 -33.296875 C 28.488281 -33.859375 29.226562 -34.140625 30.15625 -34.140625 Z M 30.15625 -34.140625" transform="translate(46.15 201.393)"/></g></g></g><g fill="#3E3093"><g><g><path d="M 6.640625 0 C 5.710938 0 4.984375 -0.253906 4.453125 -0.765625 C 3.921875 -1.273438 3.65625 -2 3.65625 -2.9375 L 3.65625 -30.96875 C 3.65625 -31.894531 3.921875 -32.613281 4.453125 -33.125 C 4.984375 -33.644531 5.710938 -33.90625 6.640625 -33.90625 L 24 -33.90625 C 24.925781 -33.90625 25.644531 -33.695312 26.15625 -33.28125 C 26.675781 -32.863281 26.9375 -32.269531 26.9375 -31.5 C 26.9375 -30.695312 26.675781 -30.078125 26.15625 -29.640625 C 25.644531 -29.210938 24.925781 -29 24 -29 L 9.71875 -29 L 9.71875 -19.671875 L 23.03125 -19.671875 C 23.96875 -19.671875 24.691406 -19.460938 25.203125 -19.046875 C 25.710938 -18.628906 25.96875 -18.019531 25.96875 -17.21875 C 25.96875 -16.445312 25.710938 -15.851562 25.203125 -15.4375 C 24.691406 -15.019531 23.96875 -14.8125 23.03125 -14.8125 L 9.71875 -14.8125 L 9.71875 -4.90625 L 24 -4.90625 C 24.925781 -4.90625 25.644531 -4.6875 26.15625 -4.25 C 26.675781 -3.820312 26.9375 -3.207031 26.9375 -2.40625 C 26.9375 -1.632812 26.675781 -1.039062 26.15625 -0.625 C 25.644531 -0.207031 24.925781 0 24 0 Z M 6.640625 0" transform="translate(86.112 201.393)"/></g></g></g><g fill="#3E3093"><g><g><path d="M 30.78125 -3.890625 C 31.164062 -3.316406 31.359375 -2.757812 31.359375 -2.21875 C 31.359375 -1.476562 31.0625 -0.863281 30.46875 -0.375 C 29.875 0.101562 29.175781 0.34375 28.375 0.34375 C 27.863281 0.34375 27.375 0.222656 26.90625 -0.015625 C 26.445312 -0.265625 26.054688 -0.628906 25.734375 -1.109375 L 19.328125 -10.828125 C 18.691406 -11.847656 18.007812 -12.566406 17.28125 -12.984375 C 16.5625 -13.398438 15.625 -13.609375 14.46875 -13.609375 L 9.765625 -13.609375 L 9.765625 -2.84375 C 9.765625 -1.875 9.488281 -1.109375 8.9375 -0.546875 C 8.394531 0.00390625 7.660156 0.28125 6.734375 0.28125 C 5.804688 0.28125 5.0625 0.00390625 4.5 -0.546875 C 3.9375 -1.109375 3.65625 -1.875 3.65625 -2.84375 L 3.65625 -30.96875 C 3.65625 -31.894531 3.921875 -32.613281 4.453125 -33.125 C 4.984375 -33.644531 5.710938 -33.90625 6.640625 -33.90625 L 18.65625 -33.90625 C 22.507812 -33.90625 25.4375 -33.046875 27.4375 -31.328125 C 29.4375 -29.617188 30.4375 -27.144531 30.4375 -23.90625 C 30.4375 -21.269531 29.691406 -19.109375 28.203125 -17.421875 C 26.710938 -15.742188 24.601562 -14.664062 21.875 -14.1875 C 22.8125 -13.957031 23.628906 -13.554688 24.328125 -12.984375 C 25.035156 -12.410156 25.726562 -11.609375 26.40625 -10.578125 Z M 17.796875 -18.375 C 20.140625 -18.375 21.851562 -18.8125 22.9375 -19.6875 C 24.03125 -20.570312 24.578125 -21.929688 24.578125 -23.765625 C 24.578125 -25.617188 24.03125 -26.96875 22.9375 -27.8125 C 21.851562 -28.664062 20.140625 -29.09375 17.796875 -29.09375 L 9.71875 -29.09375 L 9.71875 -18.375 Z M 17.796875 -18.375" transform="translate(117.564 201.393)"/></g></g></g><g fill="#3E3093"><g><g><path d="M 18.75 0.4375 C 15.445312 0.4375 12.585938 -0.265625 10.171875 -1.671875 C 7.753906 -3.085938 5.882812 -5.109375 4.5625 -7.734375 C 3.25 -10.367188 2.59375 -13.453125 2.59375 -16.984375 C 2.59375 -20.503906 3.242188 -23.570312 4.546875 -26.1875 C 5.847656 -28.800781 7.710938 -30.8125 10.140625 -32.21875 C 12.578125 -33.632812 15.445312 -34.34375 18.75 -34.34375 C 22.050781 -34.34375 24.910156 -33.632812 27.328125 -32.21875 C 29.753906 -30.8125 31.617188 -28.800781 32.921875 -26.1875 C 34.222656 -23.570312 34.875 -20.503906 34.875 -16.984375 C 34.875 -13.453125 34.210938 -10.367188 32.890625 -7.734375 C 31.578125 -5.109375 29.707031 -3.085938 27.28125 -1.671875 C 24.863281 -0.265625 22.019531 0.4375 18.75 0.4375 Z M 18.75 -4.515625 C 21.863281 -4.515625 24.289062 -5.585938 26.03125 -7.734375 C 27.78125 -9.890625 28.65625 -12.972656 28.65625 -16.984375 C 28.65625 -20.984375 27.78125 -24.050781 26.03125 -26.1875 C 24.289062 -28.320312 21.863281 -29.390625 18.75 -29.390625 C 15.613281 -29.390625 13.171875 -28.320312 11.421875 -26.1875 C 9.671875 -24.050781 8.796875 -20.984375 8.796875 -16.984375 C 8.796875 -12.972656 9.671875 -9.890625 11.421875 -7.734375 C 13.171875 -5.585938 15.613281 -4.515625 18.75 -4.515625 Z M 18.75 -4.515625" transform="translate(154.112 201.393)"/></g></g></g><g fill="#3E3093"><g><g><path d="M 14.765625 0.234375 C 13.804688 0.234375 13.046875 -0.0390625 12.484375 -0.59375 C 11.921875 -1.15625 11.640625 -1.90625 11.640625 -2.84375 L 11.640625 -28.8125 L 2.890625 -28.8125 C 0.960938 -28.8125 0 -29.660156 0 -31.359375 C 0 -33.054688 0.960938 -33.90625 2.890625 -33.90625 L 26.59375 -33.90625 C 28.519531 -33.90625 29.484375 -33.054688 29.484375 -31.359375 C 29.484375 -29.660156 28.519531 -28.8125 26.59375 -28.8125 L 17.84375 -28.8125 L 17.84375 -2.84375 C 17.84375 -1.90625 17.5625 -1.15625 17 -0.59375 C 16.4375 -0.0390625 15.691406 0.234375 14.765625 0.234375 Z M 14.765625 0.234375" transform="translate(210.86 201.393)"/></g></g></g><g fill="#3E3093"><g><g><path d="M 18.75 0.4375 C 15.445312 0.4375 12.585938 -0.265625 10.171875 -1.671875 C 7.753906 -3.085938 5.882812 -5.109375 4.5625 -7.734375 C 3.25 -10.367188 2.59375 -13.453125 2.59375 -16.984375 C 2.59375 -20.503906 3.242188 -23.570312 4.546875 -26.1875 C 5.847656 -28.800781 7.710938 -30.8125 10.140625 -32.21875 C 12.578125 -33.632812 15.445312 -34.34375 18.75 -34.34375 C 22.050781 -34.34375 24.910156 -33.632812 27.328125 -32.21875 C 29.753906 -30.8125 31.617188 -28.800781 32.921875 -26.1875 C 34.222656 -23.570312 34.875 -20.503906 34.875 -16.984375 C 34.875 -13.453125 34.210938 -10.367188 32.890625 -7.734375 C 31.578125 -5.109375 29.707031 -3.085938 27.28125 -1.671875 C 24.863281 -0.265625 22.019531 0.4375 18.75 0.4375 Z M 18.75 -4.515625 C 21.863281 -4.515625 24.289062 -5.585938 26.03125 -7.734375 C 27.78125 -9.890625 28.65625 -12.972656 28.65625 -16.984375 C 28.65625 -20.984375 27.78125 -24.050781 26.03125 -26.1875 C 24.289062 -28.320312 21.863281 -29.390625 18.75 -29.390625 C 15.613281 -29.390625 13.171875 -28.320312 11.421875 -26.1875 C 9.671875 -24.050781 8.796875 -20.984375 8.796875 -16.984375 C 8.796875 -12.972656 9.671875 -9.890625 11.421875 -7.734375 C 13.171875 -5.585938 15.613281 -4.515625 18.75 -4.515625 Z M 18.75 -4.515625" transform="translate(243.465 201.393)"/></g></g></g><g fill="#3E3093"><g><g><path d="M 6.640625 0 C 5.710938 0 4.984375 -0.253906 4.453125 -0.765625 C 3.921875 -1.273438 3.65625 -2 3.65625 -2.9375 L 3.65625 -30.96875 C 3.65625 -31.894531 3.921875 -32.613281 4.453125 -33.125 C 4.984375 -33.644531 5.710938 -33.90625 6.640625 -33.90625 L 16.15625 -33.90625 C 21.707031 -33.90625 26.015625 -32.421875 29.078125 -29.453125 C 32.140625 -26.492188 33.671875 -22.335938 33.671875 -16.984375 C 33.671875 -11.585938 32.140625 -7.40625 29.078125 -4.4375 C 26.015625 -1.476562 21.707031 0 16.15625 0 Z M 15.78125 -5.046875 C 23.570312 -5.046875 27.46875 -9.023438 27.46875 -16.984375 C 27.46875 -24.898438 23.570312 -28.859375 15.78125 -28.859375 L 9.859375 -28.859375 L 9.859375 -5.046875 Z M 15.78125 -5.046875" transform="translate(284.053 201.393)"/></g></g></g><g fill="#3E3093"><g><g><path d="M 18.75 0.4375 C 15.445312 0.4375 12.585938 -0.265625 10.171875 -1.671875 C 7.753906 -3.085938 5.882812 -5.109375 4.5625 -7.734375 C 3.25 -10.367188 2.59375 -13.453125 2.59375 -16.984375 C 2.59375 -20.503906 3.242188 -23.570312 4.546875 -26.1875 C 5.847656 -28.800781 7.710938 -30.8125 10.140625 -32.21875 C 12.578125 -33.632812 15.445312 -34.34375 18.75 -34.34375 C 22.050781 -34.34375 24.910156 -33.632812 27.328125 -32.21875 C 29.753906 -30.8125 31.617188 -28.800781 32.921875 -26.1875 C 34.222656 -23.570312 34.875 -20.503906 34.875 -16.984375 C 34.875 -13.453125 34.210938 -10.367188 32.890625 -7.734375 C 31.578125 -5.109375 29.707031 -3.085938 27.28125 -1.671875 C 24.863281 -0.265625 22.019531 0.4375 18.75 0.4375 Z M 18.75 -4.515625 C 21.863281 -4.515625 24.289062 -5.585938 26.03125 -7.734375 C 27.78125 -9.890625 28.65625 -12.972656 28.65625 -16.984375 C 28.65625 -20.984375 27.78125 -24.050781 26.03125 -26.1875 C 24.289062 -28.320312 21.863281 -29.390625 18.75 -29.390625 C 15.613281 -29.390625 13.171875 -28.320312 11.421875 -26.1875 C 9.671875 -24.050781 8.796875 -20.984375 8.796875 -16.984375 C 8.796875 -12.972656 9.671875 -9.890625 11.421875 -7.734375 C 13.171875 -5.585938 15.613281 -4.515625 18.75 -4.515625 Z M 18.75 -4.515625" transform="translate(323.44 201.393)"/></g></g></g></svg>